<svg width="357" height="266" viewBox="0 0 357 266" fill="none" xmlns="http://www.w3.org/2000/svg">
<path d="M169.218 202.007H31.3518C30.2717 202.005 29.2366 201.574 28.4736 200.809C27.7105 200.045 27.282 199.008 27.282 197.928V4.04299C27.2914 2.96869 27.7241 1.94148 28.4861 1.18448C29.2481 0.427484 30.2779 0.00184034 31.3518 0H169.218C170.299 0 171.336 0.429719 172.101 1.19462C172.865 1.95953 173.295 2.99696 173.295 4.0787V197.928C173.295 199.01 172.865 200.047 172.101 200.812C171.336 201.577 170.299 202.007 169.218 202.007ZM31.3518 0.142862C30.3191 0.144755 29.3293 0.556493 28.5998 1.2877C27.8702 2.01891 27.4605 3.00985 27.4605 4.04299V197.928C27.4605 198.961 27.8702 199.952 28.5998 200.683C29.3293 201.414 30.3191 201.826 31.3518 201.828H169.218C170.251 201.826 171.242 201.415 171.973 200.684C172.703 199.953 173.115 198.962 173.116 197.928V4.04299C173.115 3.00919 172.703 2.01827 171.973 1.28727C171.242 0.556261 170.251 0.144751 169.218 0.142862H31.3518Z" fill="#EBEBEB"/>
<path d="M323.663 202.007H185.79C184.709 202.005 183.673 201.574 182.909 200.81C182.145 200.045 181.715 199.009 181.713 197.928V4.04299C181.724 2.96803 182.158 1.94083 182.922 1.18403C183.685 0.427234 184.715 0.00182027 185.79 0H323.663C324.736 0.00371762 325.764 0.430192 326.524 1.18699C327.285 1.94378 327.716 2.96992 327.726 4.04299V197.928C327.726 199.007 327.298 200.042 326.537 200.807C325.775 201.571 324.742 202.003 323.663 202.007ZM185.79 0.142862C184.756 0.144751 183.766 0.556261 183.035 1.28727C182.305 2.01827 181.893 3.00919 181.891 4.04299V197.928C181.893 198.962 182.305 199.953 183.035 200.684C183.766 201.415 184.756 201.826 185.79 201.828H323.663C324.697 201.826 325.687 201.415 326.418 200.684C327.148 199.953 327.56 198.962 327.562 197.928V4.04299C327.56 3.00919 327.148 2.01827 326.418 1.28727C325.687 0.556261 324.697 0.144751 323.663 0.142862H185.79Z" fill="#EBEBEB"/>
<path d="M321.228 245.358H297.581V245.536H321.228V245.358Z" fill="#EBEBEB"/>
<path d="M236.491 247.301H230.286V247.479H236.491V247.301Z" fill="#EBEBEB"/>
<path d="M296.867 238.729H283.165V238.908H296.867V238.729Z" fill="#EBEBEB"/>
<path d="M68.2942 239.929H37.4565V240.108H68.2942V239.929Z" fill="#EBEBEB"/>
<path d="M79.1754 239.929H74.6558V240.108H79.1754V239.929Z" fill="#EBEBEB"/>
<path d="M160.757 242.944H93.8696V243.122H160.757V242.944Z" fill="#EBEBEB"/>
<path d="M357 233.865H0V234.043H357V233.865Z" fill="#EBEBEB"/>
<path d="M110.627 28.6866H26.6465V152.834H110.627V28.6866Z" fill="#E0E0E0"/>
<path d="M113.719 28.6866H29.738V152.834H113.719V28.6866Z" fill="#F0F0F0"/>
<path d="M109.471 94.3173H33.8223V145.562H109.471V94.3173Z" fill="#EBEBEB"/>
<path d="M109.471 33.7297H33.8223V94.3173H109.471V33.7297Z" fill="white"/>
<path d="M109.47 33.7297H106.807V145.562H109.47V33.7297Z" fill="#E0E0E0"/>
<path d="M33.5867 94.3245V97.0246H107.093V94.3245H33.5867Z" fill="#E0E0E0"/>
<path d="M109.47 89.7815H32.394V94.3173H109.47V89.7815Z" fill="#F0F0F0"/>
<path d="M312.853 176.099H210.494C202.738 176.099 196.45 182.389 196.45 190.149V220.629C196.45 228.388 202.738 234.679 210.494 234.679H312.853C320.61 234.679 326.898 228.388 326.898 220.629V190.149C326.898 182.389 320.61 176.099 312.853 176.099Z" fill="#E0E0E0"/>
<path d="M305.978 176.527H203.619C195.862 176.527 189.574 182.818 189.574 190.578V221.057C189.574 228.817 195.862 235.108 203.619 235.108H305.978C313.734 235.108 320.022 228.817 320.022 221.057V190.578C320.022 182.818 313.734 176.527 305.978 176.527Z" fill="#F5F5F5"/>
<path d="M206.132 182.056H304.235C305.524 182.056 306.799 182.31 307.99 182.803C309.18 183.296 310.261 184.019 311.172 184.931C312.083 185.842 312.806 186.924 313.299 188.115C313.792 189.305 314.046 190.582 314.046 191.87V203.914H196.35V191.863C196.352 189.267 197.382 186.776 199.216 184.938C201.049 183.1 203.536 182.063 206.132 182.056Z" fill="#E0E0E0"/>
<path d="M196.35 206.864H314.046V218.907C314.046 221.51 313.012 224.006 311.172 225.847C309.333 227.688 306.837 228.722 304.235 228.722H206.132C203.535 228.714 201.047 227.677 199.213 225.837C197.38 223.997 196.35 221.505 196.35 218.907V206.864Z" fill="#E0E0E0"/>
<path d="M282.38 186.285H260.824V204.049H282.38V186.285Z" fill="#E6E6E6"/>
<path d="M260.824 186.285H255.305V204.049H260.824V186.285Z" fill="#F5F5F5"/>
<path d="M259.896 199.292C259.896 199.651 259.79 200.002 259.591 200.3C259.391 200.599 259.108 200.831 258.777 200.968C258.445 201.106 258.081 201.142 257.729 201.072C257.377 201.002 257.054 200.829 256.8 200.575C256.547 200.321 256.374 199.998 256.304 199.646C256.234 199.294 256.27 198.929 256.407 198.598C256.544 198.266 256.777 197.983 257.075 197.784C257.373 197.584 257.724 197.478 258.083 197.478C258.564 197.478 259.025 197.669 259.365 198.009C259.705 198.349 259.896 198.811 259.896 199.292Z" fill="#E0E0E0"/>
<path d="M288.035 183.542H271.841V204.049H288.035V183.542Z" fill="#E6E6E6"/>
<path d="M271.848 183.542H267.165V204.049H271.848V183.542Z" fill="#F5F5F5"/>
<path d="M269.506 188.127C270.394 188.127 271.113 187.408 271.113 186.52C271.113 185.633 270.394 184.913 269.506 184.913C268.619 184.913 267.9 185.633 267.9 186.52C267.9 187.408 268.619 188.127 269.506 188.127Z" fill="#E0E0E0"/>
<path d="M269.506 188.127C270.394 188.127 271.113 187.408 271.113 186.52C271.113 185.633 270.394 184.913 269.506 184.913C268.619 184.913 267.9 185.633 267.9 186.52C267.9 187.408 268.619 188.127 269.506 188.127Z" fill="#E0E0E0"/>
<path d="M290.263 186.285H276.611V204.049H290.263V186.285Z" fill="#EBEBEB"/>
<path d="M276.611 186.285H273.49V204.049H276.611V186.285Z" fill="#F5F5F5"/>
<path d="M305.692 189.292H287.785V204.057H305.692V189.292Z" fill="#E6E6E6"/>
<path d="M287.785 189.292H283.201V204.057H287.785V189.292Z" fill="#F5F5F5"/>
<path d="M310.383 187.013H296.931V204.049H310.383V187.013Z" fill="#E6E6E6"/>
<path d="M296.946 187.013H293.054V204.049H296.946V187.013Z" fill="#F5F5F5"/>
<path d="M313.967 189.292H300.901V204.057H313.967V189.292Z" fill="#E6E6E6"/>
<path d="M300.894 189.292H298.302V204.057H300.894V189.292Z" fill="#F0F0F0"/>
<path d="M230.858 210.278H214.171V228.043H230.858V210.278Z" fill="#E6E6E6"/>
<path d="M214.179 210.278H209.902V228.043H214.179V210.278Z" fill="#F5F5F5"/>
<path d="M235.227 207.535H222.697V228.043H235.227V207.535Z" fill="#E6E6E6"/>
<path d="M222.704 207.535H219.084V228.043H222.704V207.535Z" fill="#F5F5F5"/>
<path d="M287.778 210.278H271.092V228.043H287.778V210.278Z" fill="#E6E6E6"/>
<path d="M271.099 210.278H266.822V228.043H271.099V210.278Z" fill="#F5F5F5"/>
<path d="M292.147 207.535H279.617V228.043H292.147V207.535Z" fill="#E6E6E6"/>
<path d="M279.631 207.535H276.004V228.043H279.631V207.535Z" fill="#F5F5F5"/>
<path d="M236.962 210.278H226.395V228.043H236.962V210.278Z" fill="#EBEBEB"/>
<path d="M226.395 210.278H223.982V228.043H226.395V210.278Z" fill="#F5F5F5"/>
<path d="M248.9 213.285H235.042V228.05H248.9V213.285Z" fill="#E6E6E6"/>
<path d="M235.042 213.285H231.493V228.05H235.042V213.285Z" fill="#F5F5F5"/>
<path d="M252.535 211.007H242.125V228.043H252.535V211.007Z" fill="#E6E6E6"/>
<path d="M242.132 211.007H239.119V228.043H242.132V211.007Z" fill="#F5F5F5"/>
<path d="M255.312 213.285H245.195V228.05H255.312V213.285Z" fill="#E6E6E6"/>
<path d="M245.188 213.285H243.181V228.05H245.188V213.285Z" fill="#F0F0F0"/>
<path d="M243.081 159.062C242.906 158.722 242.627 158.446 242.284 158.275C241.941 158.104 241.553 158.047 241.175 158.112C240.795 158.205 240.454 158.414 240.198 158.71C239.942 159.005 239.785 159.373 239.747 159.762C239.487 159.57 239.175 159.462 238.852 159.453C238.529 159.444 238.211 159.535 237.941 159.712C237.671 159.909 237.461 160.176 237.334 160.486C237.208 160.795 237.171 161.133 237.227 161.462C237.077 161.353 236.905 161.275 236.724 161.235C236.542 161.196 236.355 161.194 236.172 161.231C235.99 161.268 235.818 161.343 235.666 161.45C235.515 161.558 235.387 161.696 235.292 161.855C235.116 162.199 235.08 162.597 235.19 162.967C235.301 163.337 235.549 163.65 235.884 163.841C235.653 163.875 235.442 163.993 235.291 164.172C235.14 164.351 235.061 164.579 235.067 164.813C235.073 165.047 235.165 165.271 235.324 165.442C235.484 165.613 235.701 165.719 235.934 165.741C235.694 165.759 235.469 165.861 235.295 166.028C235.122 166.194 235.012 166.416 234.985 166.655C234.959 166.896 235.015 167.138 235.145 167.341C235.275 167.545 235.47 167.699 235.699 167.777C235.586 167.842 235.489 167.932 235.415 168.039C235.342 168.147 235.293 168.27 235.273 168.399C235.254 168.528 235.263 168.659 235.301 168.784C235.338 168.909 235.404 169.024 235.492 169.12C235.592 169.198 235.711 169.251 235.836 169.274C235.962 169.296 236.091 169.288 236.213 169.249C236.334 169.21 236.445 169.143 236.534 169.052C236.624 168.961 236.69 168.849 236.727 168.727C236.745 168.762 236.771 168.793 236.802 168.816C236.834 168.839 236.871 168.855 236.91 168.861C236.949 168.867 236.989 168.864 237.027 168.852C237.065 168.84 237.099 168.819 237.127 168.791C237.152 168.759 237.171 168.722 237.181 168.682C237.191 168.643 237.193 168.601 237.186 168.561C237.179 168.521 237.164 168.482 237.142 168.448C237.119 168.414 237.09 168.385 237.055 168.363C237.113 168.428 237.187 168.476 237.27 168.502C237.353 168.528 237.441 168.53 237.526 168.509C237.61 168.487 237.687 168.443 237.747 168.38C237.808 168.318 237.85 168.24 237.869 168.155C237.842 168.358 237.868 168.565 237.944 168.755C238.021 168.945 238.146 169.112 238.307 169.238C238.468 169.365 238.659 169.448 238.861 169.479C239.064 169.509 239.27 169.486 239.461 169.413C239.421 169.507 239.401 169.608 239.404 169.711C239.406 169.813 239.431 169.914 239.475 170.006C239.52 170.098 239.584 170.18 239.663 170.245C239.742 170.31 239.834 170.358 239.933 170.384C240.331 170.45 240.739 170.369 241.082 170.156C241.423 169.941 241.81 169.812 242.21 169.777C242.558 169.821 242.897 169.915 243.217 170.056C243.755 170.218 244.328 170.228 244.871 170.084C245.414 169.941 245.907 169.649 246.294 169.241C246.439 169.408 246.624 169.536 246.831 169.612C247.039 169.688 247.262 169.711 247.481 169.679C247.699 169.646 247.906 169.559 248.082 169.425C248.257 169.291 248.397 169.115 248.486 168.913C248.521 169.12 248.625 169.309 248.781 169.45C248.938 169.591 249.137 169.674 249.347 169.686C249.557 169.699 249.765 169.64 249.936 169.519C250.108 169.397 250.234 169.222 250.293 169.02V169.577C250.487 169.593 250.683 169.561 250.862 169.482C251.04 169.403 251.196 169.28 251.315 169.125C251.434 168.97 251.512 168.787 251.541 168.594C251.571 168.401 251.552 168.203 251.485 168.02C251.766 168.009 252.034 167.899 252.242 167.709C252.45 167.52 252.584 167.263 252.62 166.984C252.652 166.702 252.586 166.418 252.432 166.18C252.279 165.942 252.048 165.764 251.778 165.677C252.238 165.527 252.64 165.236 252.926 164.845C253.212 164.454 253.369 163.984 253.373 163.499C253.378 163.015 253.231 162.541 252.952 162.145C252.674 161.749 252.278 161.45 251.821 161.291C251.648 161.225 251.46 161.204 251.277 161.23C251.093 161.256 250.919 161.329 250.771 161.441C250.7 161.503 250.643 161.579 250.604 161.665C250.565 161.75 250.545 161.843 250.545 161.937C250.545 162.032 250.565 162.125 250.604 162.21C250.643 162.296 250.7 162.372 250.771 162.434C250.896 161.992 250.877 161.522 250.715 161.092C250.553 160.663 250.257 160.297 249.872 160.048C249.477 159.839 249.022 159.775 248.585 159.869C248.149 159.963 247.76 160.209 247.487 160.562C247.618 160.367 247.688 160.137 247.688 159.902C247.688 159.666 247.618 159.436 247.487 159.241C247.359 159.055 247.174 158.916 246.96 158.846C246.746 158.775 246.515 158.776 246.302 158.848C246.249 158.553 246.088 158.289 245.85 158.108C245.612 157.927 245.314 157.841 245.016 157.869C244.721 157.936 244.46 158.107 244.281 158.351C244.103 158.596 244.019 158.896 244.045 159.198C244.022 159.081 243.964 158.973 243.879 158.889C243.794 158.805 243.686 158.748 243.569 158.726C243.452 158.704 243.33 158.717 243.22 158.764C243.111 158.811 243.018 158.89 242.953 158.991C242.66 158.898 243.081 159.062 243.081 159.062Z" fill="#EBEBEB"/>
<path d="M243.295 164.769C243.179 164.683 243.046 164.621 242.905 164.587C242.764 164.552 242.618 164.547 242.474 164.569C242.333 164.597 242.203 164.664 242.098 164.762C241.993 164.861 241.918 164.987 241.882 165.126C241.852 165.268 241.877 165.415 241.951 165.54C242.025 165.664 242.143 165.756 242.281 165.797C242.617 165.883 242.96 165.598 243.303 165.648C243.431 165.648 243.545 165.726 243.667 165.755C243.927 165.784 244.191 165.754 244.438 165.668C244.685 165.581 244.91 165.44 245.095 165.255C245.248 165.157 245.381 165.031 245.487 164.884C245.541 164.81 245.573 164.723 245.58 164.632C245.588 164.542 245.57 164.451 245.53 164.369C245.45 164.272 245.343 164.199 245.223 164.16C245.103 164.121 244.974 164.117 244.852 164.148C244.344 164.204 243.863 164.405 243.467 164.726L243.502 164.491L243.295 164.769Z" fill="#FAFAFA"/>
<path d="M250.528 164.341C250.401 164.235 250.253 164.157 250.093 164.112C250.014 164.088 249.93 164.086 249.85 164.108C249.771 164.129 249.699 164.173 249.643 164.234C249.586 164.332 249.568 164.448 249.592 164.558C249.615 164.669 249.68 164.767 249.772 164.834C249.958 164.959 250.175 165.033 250.4 165.048C250.635 165.083 250.921 165.091 251.035 164.891C251.069 164.813 251.077 164.727 251.058 164.644C251.038 164.562 250.993 164.488 250.928 164.434C250.796 164.328 250.643 164.252 250.478 164.212L250.528 164.341Z" fill="#FAFAFA"/>
<path d="M239.097 160.577C238.867 160.675 238.664 160.827 238.504 161.02C238.344 161.212 238.231 161.44 238.176 161.684C238.149 161.754 238.144 161.83 238.162 161.903C238.18 161.976 238.219 162.042 238.276 162.091C238.326 162.112 238.379 162.123 238.433 162.123C238.487 162.123 238.541 162.112 238.59 162.091L239.911 161.777C239.695 161.846 239.494 161.955 239.318 162.098C239.23 162.168 239.162 162.261 239.122 162.367C239.082 162.472 239.071 162.587 239.09 162.698C239.133 162.825 239.217 162.934 239.328 163.008C239.438 163.083 239.571 163.12 239.704 163.112C239.967 163.091 240.216 162.988 240.418 162.82C240.542 162.749 240.648 162.651 240.728 162.534C240.808 162.416 240.861 162.282 240.882 162.141C240.882 161.862 240.525 161.598 240.311 161.777C240.818 161.639 241.3 161.422 241.739 161.134C241.899 161.033 242.037 160.902 242.146 160.748C242.2 160.669 242.232 160.577 242.239 160.482C242.247 160.387 242.229 160.292 242.189 160.205C241.739 159.384 241.168 160.591 240.889 160.698C240.368 160.905 239.768 160.291 239.097 160.577Z" fill="#FAFAFA"/>
<path d="M237.048 164.084C237.021 164.164 237.017 164.25 237.037 164.333C237.057 164.415 237.101 164.49 237.162 164.548C237.195 164.573 237.232 164.59 237.272 164.599C237.311 164.609 237.353 164.609 237.392 164.601C237.432 164.593 237.47 164.576 237.503 164.552C237.536 164.529 237.563 164.498 237.584 164.462C237.278 164.52 237 164.675 236.791 164.905C236.743 164.965 236.709 165.034 236.691 165.108C236.672 165.183 236.671 165.26 236.686 165.335C236.701 165.41 236.732 165.481 236.777 165.542C236.823 165.604 236.881 165.655 236.948 165.691C237.044 165.708 237.142 165.706 237.236 165.683C237.331 165.661 237.42 165.62 237.498 165.562C237.977 165.302 238.434 165.001 238.862 164.662C238.733 164.97 239.047 165.312 239.376 165.377C239.709 165.371 240.032 165.258 240.297 165.055C240.647 164.841 241.011 164.52 240.954 164.127C240.884 163.967 240.759 163.838 240.601 163.765C240.443 163.691 240.264 163.677 240.097 163.727C239.769 163.864 239.481 164.083 239.262 164.362C239.447 164.098 239.19 163.691 238.862 163.648C238.703 163.64 238.544 163.671 238.4 163.738C238.255 163.806 238.13 163.907 238.033 164.034C238.405 163.827 238.483 163.32 237.991 163.241C237.662 163.162 237.12 163.82 237.048 164.084Z" fill="#FAFAFA"/>
<path d="M247.151 162.905C247.08 162.882 247.006 162.873 246.931 162.879C246.857 162.884 246.785 162.905 246.718 162.938C246.652 162.972 246.593 163.019 246.544 163.076C246.496 163.133 246.46 163.199 246.437 163.27C246.422 163.341 246.422 163.415 246.436 163.487C246.45 163.559 246.478 163.627 246.519 163.688C246.559 163.75 246.611 163.802 246.672 163.843C246.733 163.884 246.801 163.912 246.873 163.927C246.656 163.949 246.457 164.054 246.316 164.22C246.274 164.265 246.242 164.317 246.221 164.375C246.2 164.433 246.191 164.494 246.194 164.555C246.217 164.642 246.268 164.719 246.339 164.773C246.41 164.828 246.497 164.857 246.587 164.855C246.769 164.848 246.947 164.799 247.108 164.712C246.929 164.711 246.753 164.76 246.601 164.855C246.564 164.88 246.532 164.913 246.508 164.95C246.484 164.988 246.468 165.03 246.46 165.074C246.453 165.118 246.455 165.163 246.465 165.207C246.476 165.25 246.496 165.291 246.523 165.327C246.583 165.369 246.654 165.395 246.728 165.403C246.802 165.41 246.876 165.399 246.944 165.37C247.27 165.283 247.57 165.116 247.815 164.884C247.901 164.988 248.011 165.07 248.135 165.123C248.259 165.177 248.394 165.2 248.529 165.191C248.596 165.181 248.66 165.157 248.717 165.121C248.775 165.086 248.824 165.039 248.863 164.983C248.902 164.928 248.929 164.865 248.942 164.799C248.956 164.733 248.957 164.664 248.943 164.598C248.906 164.507 248.844 164.429 248.764 164.371C248.685 164.313 248.591 164.278 248.493 164.27C248.297 164.259 248.1 164.288 247.915 164.355C248.122 164.242 248.285 164.064 248.379 163.848C248.451 163.627 248.301 163.327 248.065 163.348C247.829 163.37 247.672 163.72 247.465 163.848C247.23 163.612 247.708 163.112 247.151 162.905Z" fill="#FAFAFA"/>
<path d="M242.432 161.812C242.292 161.926 242.183 162.074 242.115 162.241C242.048 162.408 242.024 162.59 242.046 162.769C242.046 162.969 242.099 163.166 242.199 163.339C242.3 163.512 242.444 163.655 242.617 163.754C242.741 163.793 242.871 163.805 242.999 163.789C243.128 163.773 243.251 163.729 243.361 163.662C243.472 163.594 243.566 163.504 243.638 163.396C243.711 163.289 243.76 163.168 243.781 163.04C243.807 162.78 243.753 162.518 243.625 162.289C243.498 162.06 243.303 161.877 243.067 161.762C242.965 161.721 242.854 161.704 242.744 161.712C242.633 161.721 242.527 161.755 242.432 161.812Z" fill="#FAFAFA"/>
<path d="M245.773 161.384L245.894 161.491C245.845 161.423 245.781 161.366 245.708 161.325C245.634 161.283 245.553 161.258 245.469 161.25C245.386 161.242 245.301 161.251 245.221 161.278C245.141 161.305 245.068 161.348 245.006 161.405C244.944 161.462 244.895 161.531 244.861 161.609C244.828 161.686 244.811 161.769 244.812 161.854C244.813 161.938 244.832 162.021 244.867 162.097C244.902 162.174 244.953 162.242 245.016 162.298C245.142 162.404 245.304 162.457 245.469 162.445C245.633 162.433 245.786 162.357 245.894 162.233C246.066 162.318 246.26 162.345 246.448 162.31C246.636 162.275 246.807 162.181 246.937 162.041C247.048 161.889 247.096 161.701 247.069 161.515C247.042 161.329 246.944 161.162 246.794 161.048C246.711 161.008 246.62 160.989 246.528 160.992C246.436 160.996 246.347 161.022 246.268 161.069C246.189 161.116 246.122 161.181 246.075 161.26C246.027 161.338 245.999 161.428 245.994 161.519L245.852 161.362L245.773 161.384Z" fill="#FAFAFA"/>
<path d="M249.465 161.984C249.206 162.194 249.009 162.471 248.893 162.783C248.843 162.942 248.854 163.113 248.924 163.264C248.994 163.415 249.118 163.534 249.272 163.597C249.593 163.676 249.893 163.412 250.079 163.14C250.171 163.023 250.236 162.886 250.269 162.741C250.303 162.595 250.303 162.444 250.271 162.298C250.179 162.012 249.772 161.848 249.557 162.062L249.465 161.984Z" fill="#FAFAFA"/>
<path d="M244.145 160.048C244.111 159.984 244.064 159.927 244.007 159.881C243.951 159.836 243.886 159.802 243.816 159.782C243.746 159.762 243.672 159.756 243.6 159.765C243.528 159.774 243.458 159.797 243.395 159.833C243.273 159.918 243.183 160.042 243.14 160.185C243.097 160.328 243.104 160.481 243.16 160.619C243.222 160.758 243.322 160.878 243.448 160.965C243.574 161.052 243.721 161.103 243.874 161.112C244.231 161.147 244.659 160.854 244.588 160.497C244.673 160.6 244.784 160.678 244.91 160.725C245.035 160.771 245.17 160.784 245.302 160.762C245.556 160.721 245.799 160.629 246.016 160.49C246.323 160.312 246.644 160.048 246.616 159.698C246.593 159.558 246.523 159.43 246.418 159.335C246.313 159.241 246.179 159.185 246.037 159.177C245.897 159.17 245.757 159.192 245.626 159.241C245.495 159.29 245.375 159.365 245.273 159.462C245.109 159.605 244.966 159.776 244.788 159.905C244.702 159.975 244.599 160.02 244.489 160.035C244.38 160.05 244.268 160.035 244.167 159.991L244.145 160.048Z" fill="#FAFAFA"/>
<path d="M248.686 176.291H239.54L238.647 167.07H249.579L248.686 176.291Z" fill="#F0F0F0"/>
<path d="M250.293 167.548H237.848L237.626 166.32H250.514L250.293 167.548Z" fill="#FAFAFA"/>
<path d="M239.19 204.028H228.694L231.986 193.428L232.464 191.885H234.842L239.19 204.028Z" fill="#EBEBEB"/>
<path d="M232.464 191.885L231.986 193.428L228.694 204.028L218.991 203.885L215.871 193.428L215.392 191.885H232.464Z" fill="#E0E0E0"/>
<path d="M232.464 191.885L231.986 193.428L228.694 204.028L208.766 203.735L213.015 191.885H232.464Z" fill="#FAFAFA"/>
<path d="M232.464 191.885L231.986 193.427H212.465L213.015 191.885H232.464Z" fill="#EBEBEB"/>
<path d="M215.464 198.464H211.087L212.615 194.178L216.799 194.221L215.464 198.464ZM211.594 198.106H215.164L216.278 194.535L212.829 194.499L211.594 198.106Z" fill="#EBEBEB"/>
<path d="M220.362 198.464H215.985L217.506 194.178L221.697 194.221L220.362 198.464ZM216.485 198.106H220.098L221.212 194.535L217.763 194.499L216.485 198.106Z" fill="#EBEBEB"/>
<path d="M225.253 198.464H220.876L222.404 194.178L226.588 194.221L225.253 198.464ZM221.383 198.106H224.996L226.102 194.535L222.654 194.499L221.383 198.106Z" fill="#EBEBEB"/>
<path d="M230.151 198.464H225.774L227.302 194.178L231.486 194.221L230.151 198.464ZM226.281 198.106H229.908L231.022 194.535L227.573 194.499L226.281 198.106Z" fill="#EBEBEB"/>
<path d="M213.936 203.042H209.559L211.087 198.756L215.271 198.806L213.936 203.042ZM210.066 202.685H213.672L214.786 199.114H211.337L210.066 202.685Z" fill="#EBEBEB"/>
<path d="M218.834 203.042H214.457L215.985 198.756L220.169 198.806L218.834 203.042ZM214.964 202.685H218.57L219.684 199.114H216.235L214.964 202.685Z" fill="#EBEBEB"/>
<path d="M223.725 203.042H219.348L220.876 198.756L225.06 198.806L223.725 203.042ZM219.855 202.685H223.482L224.596 199.114H221.14L219.855 202.685Z" fill="#EBEBEB"/>
<path d="M228.623 203.042H224.246L225.774 198.756L229.958 198.806L228.623 203.042ZM224.753 202.685H228.359L229.473 199.114H226.024L224.753 202.685Z" fill="#EBEBEB"/>
<path d="M295.032 170.57C295.032 172.82 295.389 174.277 295.982 175.213C296.21 175.555 296.52 175.834 296.885 176.025C297.249 176.216 297.655 176.313 298.066 176.306H301.308C301.718 176.312 302.123 176.215 302.486 176.025C302.849 175.834 303.159 175.554 303.386 175.213C303.986 174.277 304.335 172.82 304.335 170.57C304.335 167.305 302.907 164.691 302.45 162.605C302.279 161.855 302.836 159.548 302.836 159.548H296.517C296.517 159.548 297.074 161.855 296.903 162.605C296.453 164.691 295.032 167.305 295.032 170.57Z" fill="#F0F0F0"/>
<path d="M301.801 143.79C301.141 143.974 300.553 144.355 300.116 144.883C299.494 145.712 300.565 147.655 300.565 147.655C300.861 147.944 301.221 148.16 301.615 148.284C302.01 148.408 302.428 148.437 302.836 148.369L304.1 148.062C304.1 148.062 302.736 144.29 301.808 144.04L301.801 143.79Z" fill="#EBEBEB"/>
<path d="M306.77 144.698C306.606 146.362 305.206 148.226 303.721 148.083C302.236 147.94 301.244 145.819 301.408 144.162C301.572 142.505 302.786 142.562 304.264 142.733C305.742 142.905 306.941 143.04 306.77 144.698Z" fill="#EBEBEB"/>
<path d="M302.593 143.412C302.593 143.412 303.543 144.511 305.935 144.426C305.935 144.426 301.858 146.154 302.593 143.412Z" fill="#EBEBEB"/>
<path d="M303.636 143.276C303.636 143.276 304.964 143.276 304.885 143.833C304.885 143.833 305.985 143.976 305.921 143.49C305.856 143.005 303.636 143.276 303.636 143.276Z" fill="#EBEBEB"/>
<path d="M302.593 143.412C302.593 143.412 303.543 144.511 305.935 144.426C305.935 144.426 301.858 146.154 302.593 143.412Z" fill="#E0E0E0"/>
<path d="M303.636 143.276C303.636 143.276 304.964 143.276 304.885 143.833C304.885 143.833 305.985 143.976 305.921 143.49C305.856 143.005 303.636 143.276 303.636 143.276Z" fill="#E0E0E0"/>
<path d="M301.179 148.133C301.356 148.549 301.646 148.906 302.016 149.165C302.386 149.424 302.821 149.574 303.271 149.598C303.722 149.615 304.171 149.538 304.59 149.372C305.01 149.206 305.39 148.955 305.706 148.633C306.335 147.986 306.775 147.178 306.977 146.298C307.034 146.069 307.163 145.505 306.877 145.355C306.592 145.205 306.37 145.576 306.213 145.733C305.758 146.186 305.255 146.588 304.714 146.933C304.182 147.271 303.612 147.542 303.014 147.74C302.85 147.798 301.237 148.283 301.179 148.133Z" fill="#EBEBEB"/>
<path d="M308.048 146.055C308.12 146.414 308.099 146.786 307.987 147.135C307.874 147.484 307.674 147.798 307.406 148.048C307.038 148.363 306.614 148.606 306.156 148.762C305.842 148.876 305.442 148.969 305.206 148.762C304.971 148.555 305.056 148.083 305.206 147.748C305.413 147.233 305.628 146.726 305.863 146.219C306.03 145.71 306.271 145.229 306.577 144.79C306.877 144.49 307.177 144.79 307.491 145.076C307.761 145.347 307.953 145.685 308.048 146.055Z" fill="#EBEBEB"/>
<path d="M301.722 147.298C301.444 147.229 301.19 147.082 300.992 146.875C300.793 146.667 300.658 146.408 300.601 146.126C300.523 145.705 300.708 144.698 301.237 144.698C301.233 145.587 301.398 146.469 301.722 147.298Z" fill="#E0E0E0"/>
<path d="M305.742 147.59C306.024 147.562 306.294 147.466 306.529 147.309C306.765 147.152 306.958 146.939 307.091 146.69C307.234 146.411 307.406 144.898 306.842 145.44C306.656 145.619 306.563 146.283 306.435 146.533C306.248 146.912 306.015 147.267 305.742 147.59Z" fill="#E0E0E0"/>
<path d="M303.536 148.126C303.713 148.337 303.955 148.482 304.223 148.54C304.492 148.599 304.773 148.566 305.021 148.447C304.914 148.726 303.957 148.797 303.664 148.826C302.886 148.904 302.565 148.505 301.908 148.076C301.908 148.076 303 148.462 303.536 148.126Z" fill="#E0E0E0"/>
<path d="M298.816 174.513L300.644 156.069L303.057 149.519L303.479 149.676L301.072 156.191L299.166 175.02L298.816 174.513Z" fill="#E6E6E6"/>
<path d="M301.058 156.034L300.658 156.234C300.371 155.61 300.132 154.965 299.944 154.305C299.595 152.997 299.079 151.739 298.409 150.562L298.788 150.326C299.478 151.534 300.011 152.826 300.373 154.169C300.555 154.807 300.784 155.43 301.058 156.034Z" fill="#E6E6E6"/>
<path d="M302.022 153.612C302.648 153.566 303.237 153.294 303.679 152.848C304.143 152.311 304.491 151.683 304.7 151.005C303.886 151.091 303.136 150.562 302.322 150.505C301.998 150.484 301.673 150.538 301.372 150.662C301.072 150.786 300.803 150.976 300.587 151.219C300.037 151.862 299.716 152.648 300.016 153.033C300.583 153.481 301.303 153.689 302.022 153.612Z" fill="#F0F0F0"/>
<path d="M295.51 151.612C295.888 151.355 296.319 151.184 296.771 151.113C297.222 151.041 297.684 151.07 298.124 151.198C298.471 151.329 298.781 151.541 299.03 151.817C299.278 152.093 299.457 152.424 299.552 152.783C299.39 152.991 299.175 153.151 298.931 153.248C298.686 153.345 298.419 153.374 298.159 153.333C297.639 153.237 297.141 153.048 296.688 152.776C296.235 152.505 295.737 152.317 295.218 152.219L295.51 151.612Z" fill="#F0F0F0"/>
<path d="M299.537 151.962C298.481 152.083 297.531 152.291 296.567 151.091C295.925 150.283 296.132 149.062 296.174 148.098C297.371 148.48 298.53 148.97 299.637 149.562C299.875 149.669 300.084 149.829 300.25 150.029C300.416 150.23 300.534 150.466 300.594 150.719C300.628 150.966 300.568 151.217 300.425 151.421C300.282 151.625 300.067 151.767 299.823 151.819L299.537 151.962Z" fill="#F0F0F0"/>
<path d="M296.51 166.32C295.995 167.511 295.751 168.801 295.796 170.098C295.796 170.341 295.896 170.62 296.074 170.663C296.253 170.706 296.396 170.506 296.453 170.284C296.498 170.049 296.512 169.809 296.496 169.57C296.496 167.591 297.567 165.92 297.774 163.991C297.831 163.441 297.688 161.712 297.367 162.984C297.102 164.148 296.903 165.205 296.51 166.32Z" fill="#FAFAFA"/>
<path d="M146.92 205.621C146.92 205.621 148.997 182.613 139.858 171.398C130.719 160.184 146.998 170.391 149.854 181.577C149.854 181.577 150.39 160.862 141.286 147.469C132.183 134.076 147.712 144.098 150.418 158.727C150.418 158.727 150.939 140.255 146.384 130.468C141.829 120.682 148.619 126.504 151.625 132.611C154.631 138.719 153.146 155.005 153.146 155.005C153.146 155.005 156.337 124.933 162.428 126.561C168.518 128.19 155.895 149.169 154.888 159.419C154.888 159.419 160.4 145.133 165.891 147.276C171.381 149.419 158.244 152.448 154.181 173.241L152.967 182.863C152.967 182.863 157.965 168.82 162.506 172.513C167.047 176.206 151.404 185.413 149.654 205.992L146.92 205.621Z" fill="#EBEBEB"/>
<path d="M147.905 206.814C147.905 206.814 145.956 178.363 157.53 164.805C169.104 151.248 148.755 163.341 144.899 177.056C144.899 177.056 144.785 151.498 156.402 135.24C168.019 118.982 148.548 130.876 144.828 148.812C144.828 148.812 144.685 126.011 150.54 114.075C156.395 102.139 147.884 109.111 144.014 116.568C140.144 124.025 141.551 144.105 141.551 144.105C141.551 144.105 138.409 106.896 130.891 108.711C123.372 110.525 138.345 136.812 139.316 149.476C139.316 149.476 132.89 131.676 126.064 134.176C119.238 136.676 135.346 140.805 139.808 166.591L141.044 178.577C141.044 178.577 135.274 161.098 129.555 165.498C123.836 169.898 142.907 181.77 144.549 207.228L147.905 206.814Z" fill="#F0F0F0"/>
<path d="M165.891 221C165.891 228.807 157.43 235.143 146.991 235.143C136.553 235.143 128.084 228.807 128.084 221C128.084 217.478 129.798 214.271 132.64 211.8L130.405 202.335H163.57L161.364 211.8C164.177 214.293 165.891 217.478 165.891 221Z" fill="#EBEBEB"/>
<path d="M178.5 265.73C254.957 265.73 316.937 262.11 316.937 257.644C316.937 253.178 254.957 249.558 178.5 249.558C102.043 249.558 40.0625 253.178 40.0625 257.644C40.0625 262.11 102.043 265.73 178.5 265.73Z" fill="#F5F5F5"/>
<path d="M167.126 144.29L168.911 133.99L172.417 135.004L167.126 144.29Z" fill="#FF9933"/>
<path d="M168.304 147.59L178.343 144.683L176.944 141.305L168.304 147.59Z" fill="#FF9933"/>
<path d="M170.089 143.712L175.808 132.897L179.664 135.576L170.089 143.712Z" fill="#FF9933"/>
<path d="M234.699 43.3442H224.296C223.862 43.3161 223.454 43.1237 223.157 42.8059C222.859 42.4882 222.693 42.069 222.693 41.6335C222.693 41.198 222.859 40.7788 223.157 40.461C223.454 40.1433 223.862 39.9508 224.296 39.9227H234.699C235.134 39.9508 235.541 40.1433 235.839 40.461C236.136 40.7788 236.302 41.198 236.302 41.6335C236.302 42.069 236.136 42.4882 235.839 42.8059C235.541 43.1237 235.134 43.3161 234.699 43.3442Z" fill="#50AFFF"/>
<g opacity="0.7">
<path opacity="0.7" d="M234.699 43.3442H224.296C223.862 43.3161 223.454 43.1237 223.157 42.8059C222.859 42.4882 222.693 42.069 222.693 41.6335C222.693 41.198 222.859 40.7788 223.157 40.461C223.454 40.1433 223.862 39.9508 224.296 39.9227H234.699C235.134 39.9508 235.541 40.1433 235.839 40.461C236.136 40.7788 236.302 41.198 236.302 41.6335C236.302 42.069 236.136 42.4882 235.839 42.8059C235.541 43.1237 235.134 43.3161 234.699 43.3442Z" fill="white"/>
</g>
<path d="M272.862 78.4239L232.978 151.855C232.731 152.308 232.314 152.645 231.818 152.791C231.323 152.937 230.79 152.88 230.337 152.633L162.471 115.718C162.018 115.47 161.681 115.053 161.535 114.558C161.389 114.062 161.446 113.529 161.693 113.075L213.565 17.5863C213.812 17.1329 214.229 16.7963 214.725 16.6503C215.22 16.5044 215.753 16.5609 216.206 16.8077L261.902 41.6656L272.862 78.4239Z" fill="#50AFFF"/>
<g opacity="0.2">
<path opacity="0.2" d="M272.862 78.4239L232.978 151.855C232.731 152.308 232.314 152.645 231.818 152.791C231.323 152.937 230.79 152.88 230.337 152.633L162.471 115.718C162.018 115.47 161.681 115.053 161.535 114.558C161.389 114.062 161.446 113.529 161.693 113.075L213.565 17.5863C213.812 17.1329 214.229 16.7963 214.725 16.6503C215.22 16.5044 215.753 16.5609 216.206 16.8077L261.902 41.6656L272.862 78.4239Z" fill="white"/>
</g>
<path d="M250.468 94.9129L199.784 67.5535L198.089 70.6967L248.773 98.0561L250.468 94.9129Z" fill="#50AFFF"/>
<path d="M243.546 107.754L192.862 80.395L191.167 83.5382L241.851 110.898L243.546 107.754Z" fill="#50AFFF"/>
<path d="M236.617 120.603L185.933 93.2435L184.238 96.3867L234.922 123.746L236.617 120.603Z" fill="#50AFFF"/>
<path d="M261.995 41.6299L249.972 63.7735C249.725 64.2273 249.668 64.7605 249.814 65.256C249.96 65.7515 250.297 66.1688 250.75 66.4164L272.82 78.4168L261.995 41.6299Z" fill="#50AFFF"/>
<path opacity="0.7" d="M261.995 41.6299L249.972 63.7735C249.725 64.2273 249.668 64.7605 249.814 65.256C249.96 65.7515 250.297 66.1688 250.75 66.4164L272.82 78.4168L261.995 41.6299Z" fill="white"/>
<path d="M283.258 75.9524L243.381 149.383C243.134 149.837 242.717 150.173 242.221 150.319C241.726 150.465 241.193 150.409 240.739 150.162L172.874 113.275C172.419 113.029 172.081 112.612 171.934 112.116C171.787 111.621 171.842 111.087 172.088 110.632L223.96 15.1219C224.207 14.6673 224.623 14.3292 225.119 14.1818C225.614 14.0345 226.148 14.09 226.602 14.3362L272.334 39.1941L283.258 75.9524Z" fill="#50AFFF"/>
<g opacity="0.5">
<path opacity="0.5" d="M283.258 75.9524L243.381 149.383C243.134 149.837 242.717 150.173 242.221 150.319C241.726 150.465 241.193 150.409 240.739 150.162L172.874 113.275C172.419 113.029 172.081 112.612 171.934 112.116C171.787 111.621 171.842 111.087 172.088 110.632L223.96 15.1219C224.207 14.6673 224.623 14.3292 225.119 14.1818C225.614 14.0345 226.148 14.09 226.602 14.3362L272.334 39.1941L283.258 75.9524Z" fill="white"/>
</g>
<path d="M259.532 91.7029L211.551 65.8093C211.374 65.7128 211.18 65.6524 210.979 65.6315C210.779 65.6106 210.576 65.6295 210.383 65.6873C210.19 65.7451 210.01 65.8405 209.854 65.9681C209.698 66.0957 209.568 66.2529 209.473 66.4307L209.238 66.8664C209.141 67.0441 209.081 67.2391 209.06 67.4402C209.039 67.6413 209.057 67.8446 209.115 68.0384C209.173 68.2322 209.268 68.4127 209.396 68.5695C209.524 68.7263 209.681 68.8564 209.859 68.9522L257.84 94.8459C258.198 95.0387 258.617 95.0815 259.007 94.965C259.396 94.8485 259.724 94.5822 259.917 94.2245L260.153 93.7816C260.249 93.6045 260.31 93.41 260.331 93.2094C260.352 93.0089 260.333 92.8061 260.275 92.6129C260.217 92.4197 260.122 92.2398 259.994 92.0836C259.867 91.9275 259.71 91.7981 259.532 91.7029Z" fill="#50AFFF"/>
<path d="M252.595 104.556L204.613 78.6553C203.867 78.2526 202.936 78.5312 202.533 79.2776L202.296 79.7177C201.893 80.4641 202.172 81.3957 202.918 81.7985L250.9 107.699C251.646 108.102 252.577 107.824 252.98 107.077L253.217 106.637C253.62 105.891 253.341 104.959 252.595 104.556Z" fill="#50AFFF"/>
<path d="M245.67 117.411L197.688 91.5102C196.942 91.1074 196.01 91.386 195.608 92.1325L195.37 92.5725C194.968 93.319 195.246 94.2506 195.992 94.6534L243.974 120.554C244.721 120.957 245.652 120.678 246.054 119.932L246.292 119.492C246.694 118.745 246.416 117.814 245.67 117.411Z" fill="#50AFFF"/>
<path d="M272.398 39.1655L260.367 61.3091C260.245 61.5335 260.168 61.78 260.141 62.0343C260.114 62.2886 260.138 62.5457 260.211 62.7908C260.284 63.0359 260.405 63.2641 260.566 63.4622C260.728 63.6602 260.927 63.8243 261.153 63.9449L283.222 75.9453L272.398 39.1655Z" fill="#50AFFF"/>
<path opacity="0.7" d="M272.398 39.1655L260.367 61.3091C260.245 61.5335 260.168 61.78 260.141 62.0343C260.114 62.2886 260.138 62.5457 260.211 62.7908C260.284 63.0359 260.405 63.2641 260.566 63.4622C260.728 63.6602 260.927 63.8243 261.153 63.9449L283.222 75.9453L272.398 39.1655Z" fill="white"/>
<path d="M269.642 5.50017L272.998 20.4078C260.289 23.8936 248.886 36.4797 240.682 48.3658C237.325 53.3016 234.625 58.6539 232.65 64.2878C232.65 64.2878 258.282 41.0942 272.413 39.737L271.734 64.3735C271.734 64.3735 286.393 35.8011 314.846 25.3722C314.874 25.3651 291.012 8.19311 269.642 5.50017Z" fill="#FF9933"/>
<path d="M180.435 215.671L185.526 211.45L172.688 199.264L167.212 203.942L180.435 215.671Z" fill="#CB7A63"/>
<path d="M189.653 209.821C189.072 209.653 188.451 209.683 187.889 209.907C187.547 210.007 187.175 210.128 186.875 210.242C186.576 210.357 186.397 210.428 186.204 210.506L185.64 210.756C185.607 210.765 185.577 210.784 185.557 210.811C185.536 210.838 185.525 210.872 185.526 210.906C185.521 210.918 185.519 210.93 185.519 210.942C185.519 210.954 185.521 210.966 185.526 210.978C185.549 211.013 185.585 211.038 185.626 211.049C186.349 211.239 187.087 211.366 187.832 211.428C188.198 211.475 188.57 211.445 188.925 211.342H188.975C189.178 211.275 189.375 211.186 189.56 211.078C189.677 210.984 189.769 210.862 189.828 210.724C189.886 210.585 189.91 210.435 189.896 210.285C189.897 210.194 189.875 210.103 189.833 210.022C189.791 209.941 189.729 209.872 189.653 209.821ZM189.581 210.292C189.599 210.393 189.587 210.497 189.548 210.592C189.509 210.687 189.444 210.769 189.36 210.828C189.189 210.951 188.991 211.029 188.782 211.056C188.495 211.108 188.202 211.125 187.911 211.106C187.455 211.081 187.002 211.024 186.554 210.935L186.219 210.871C186.828 210.58 187.467 210.357 188.125 210.207C188.482 210.116 188.844 210.049 189.21 210.007C189.315 210.001 189.419 210.026 189.51 210.078C189.542 210.102 189.566 210.136 189.579 210.174C189.592 210.212 189.593 210.254 189.581 210.292Z" fill="#50AFFF"/>
<path d="M187.318 207.15C187.155 207.179 186.999 207.24 186.861 207.331C186.722 207.422 186.603 207.54 186.511 207.678C186.453 207.764 186.403 207.855 186.361 207.95C186.09 208.779 186.036 209.665 186.204 210.521C186.207 210.533 186.207 210.545 186.204 210.557C186.21 210.585 186.223 210.61 186.242 210.632C186.26 210.653 186.284 210.669 186.311 210.678C186.327 210.685 186.344 210.689 186.361 210.689C186.378 210.689 186.395 210.685 186.411 210.678C186.424 210.678 186.437 210.675 186.448 210.668C186.459 210.662 186.468 210.653 186.475 210.643C186.617 210.523 186.748 210.391 186.868 210.25C187.094 209.981 187.297 209.695 187.475 209.392C187.918 208.678 188.232 207.857 188.039 207.435C187.968 207.25 187.782 207.064 187.318 207.15ZM187.746 207.578C187.868 207.85 187.625 208.492 187.268 209.121C187.051 209.505 186.792 209.864 186.497 210.193C186.398 209.545 186.432 208.884 186.597 208.25C186.638 208.112 186.701 207.982 186.782 207.864C186.901 207.69 187.074 207.562 187.275 207.5H187.375C187.675 207.414 187.732 207.528 187.782 207.564L187.746 207.578Z" fill="#50AFFF"/>
<path d="M184.862 211.15L178.436 214.378C178.314 214.436 178.217 214.535 178.162 214.659C178.107 214.782 178.098 214.921 178.136 215.05L180.021 221.036C180.068 221.177 180.142 221.307 180.239 221.419C180.336 221.531 180.454 221.623 180.587 221.689C180.72 221.755 180.864 221.795 181.012 221.805C181.16 221.816 181.308 221.797 181.449 221.75L181.556 221.7C192.516 217.85 195.879 215.121 197.021 214.5C200.284 212.721 198.449 210.407 197.236 210.693C191.766 212 189.931 211.664 187.568 211.057C186.672 210.869 185.743 210.901 184.862 211.15Z" fill="#263238"/>
<path opacity="0.2" d="M172.695 199.271L179.193 205.035L173.709 209.707L167.212 203.942L172.695 199.271Z" fill="black"/>
<path d="M170.668 209.664L178.843 202.121L177.044 198.964L167.59 207.085L170.668 209.664Z" fill="#50AFFF"/>
<path opacity="0.5" d="M170.668 209.664L178.843 202.121L177.044 198.964L167.59 207.085L170.668 209.664Z" fill="white"/>
<path d="M175.758 200.071L174.659 201.014L173.024 202.442L172.074 203.249L169.218 205.721L168.668 206.185C168.668 206.185 157.023 199.621 150.54 194.042C146.106 190.206 145.706 188.77 145.235 189.128C138.973 193.899 120.438 210.371 109.935 218.936C109.592 218.978 109.221 219.007 108.907 219.036C103.295 219.443 98.9106 218.828 95.4548 217.521C95.4548 212.964 99.3176 202.321 99.6389 201.292C99.6389 201.292 115.14 185.885 140.258 172.856C140.505 172.73 140.757 172.618 141.015 172.52C141.337 172.37 141.666 172.237 142 172.12C143.23 171.63 144.528 171.336 145.849 171.248C146.96 171.203 148.069 171.378 149.112 171.763C149.711 171.975 150.294 172.233 150.854 172.534C151.345 172.788 151.822 173.07 152.282 173.377C153.06 173.87 153.81 174.42 154.517 174.963C156.123 176.206 168.254 191.842 174.773 199.056C175.123 199.392 175.451 199.749 175.758 200.071Z" fill="#50AFFF"/>
<g opacity="0.1">
<path opacity="0.1" d="M175.758 200.071L174.659 201.014L173.024 202.442L172.074 203.249L169.218 205.721L168.668 206.185C168.668 206.185 157.023 199.621 150.54 194.042C146.106 190.206 145.706 188.77 145.235 189.128C138.973 193.899 120.438 210.371 109.935 218.936C109.592 218.978 109.221 219.007 108.907 219.036C103.295 219.443 98.9106 218.828 95.4548 217.521C95.4548 212.964 99.3176 202.321 99.6389 201.292C99.6389 201.292 115.14 185.885 140.258 172.856C140.505 172.73 140.757 172.618 141.015 172.52C141.337 172.37 141.666 172.237 142 172.12C143.23 171.63 144.528 171.336 145.849 171.248C146.96 171.203 148.069 171.378 149.112 171.763C149.711 171.975 150.294 172.233 150.854 172.534C151.345 172.788 151.822 173.07 152.282 173.377C153.06 173.87 153.81 174.42 154.517 174.963C156.123 176.206 168.254 191.842 174.773 199.056C175.123 199.392 175.451 199.749 175.758 200.071Z" fill="black"/>
</g>
<path d="M93.0415 134.29C94.0268 138.733 95.0549 145.226 91.999 148.283C95.7932 154.953 100.345 161.161 105.565 166.784C112.255 155.148 105.915 147.955 105.915 147.955C100.917 146.883 100.981 144.862 101.767 141.376L93.0415 134.29Z" fill="#CB7A63"/>
<path d="M88.9004 148.826C89.2642 147.625 90.0179 146.579 91.0424 145.855C92.0491 145.09 102.466 144.976 105.144 145.855C106.723 146.355 108.066 147.414 108.921 148.833L88.9004 148.826Z" fill="#50AFFF"/>
<path d="M136.86 166.541L139.544 165.312L139.68 169.698C138.906 170.374 138.012 170.9 137.045 171.248C136.743 171.338 136.423 171.346 136.117 171.272C135.811 171.198 135.53 171.044 135.302 170.827C135.074 170.61 134.907 170.336 134.818 170.034C134.73 169.732 134.722 169.412 134.796 169.105C134.929 168.552 135.183 168.035 135.54 167.591C135.897 167.148 136.347 166.789 136.86 166.541Z" fill="#CB7A63"/>
<path d="M142.986 166.548L142.843 168.163C142.823 168.405 142.727 168.635 142.568 168.818C142.408 169.002 142.195 169.13 141.958 169.184L139.659 169.698L139.523 165.312L141.858 165.348C142.005 165.345 142.151 165.372 142.288 165.426C142.425 165.481 142.549 165.562 142.654 165.665C142.759 165.768 142.843 165.891 142.9 166.027C142.957 166.162 142.986 166.308 142.986 166.455V166.548Z" fill="#CB7A63"/>
<path d="M102.723 179.013C106.99 181.207 111.834 182.018 116.582 181.334C122.294 180.37 132.29 174.62 136.624 171.334L135.196 169.191C133.054 169.655 115.354 178.641 103.937 170.513C101.795 168.998 93.4485 162.762 90.4997 162.891C85.7088 163.105 86.1229 168.127 88.1792 170.22C90.5568 172.613 99.4176 177.384 102.723 179.013Z" fill="#CB7A63"/>
<g opacity="0.2">
<path opacity="0.2" d="M142.843 168.163C142.826 168.404 142.731 168.633 142.572 168.816C142.414 168.998 142.201 169.125 141.965 169.177L139.68 169.698C138.906 170.374 138.012 170.9 137.045 171.248C136.909 171.293 136.767 171.317 136.624 171.32C132.283 174.62 122.344 180.363 116.589 181.32C111.843 182.001 107.003 181.189 102.738 178.999C99.4318 177.37 90.5568 172.57 88.1506 170.155C86.0943 168.063 85.6802 163.012 90.4711 162.827C93.42 162.698 101.774 168.934 103.909 170.448C114.804 178.199 131.383 170.384 134.775 169.241C134.771 169.189 134.771 169.136 134.775 169.084C134.899 168.533 135.143 168.016 135.489 167.57C135.845 167.127 136.297 166.771 136.81 166.527L139.473 165.305L141.793 165.341C141.94 165.339 142.085 165.366 142.221 165.421C142.357 165.476 142.481 165.557 142.585 165.66C142.69 165.763 142.772 165.886 142.829 166.021C142.885 166.156 142.914 166.302 142.914 166.448V166.548L142.843 168.163Z" fill="black"/>
<path opacity="0.2" d="M139.544 165.312L139.523 165.32V165.312H139.544Z" fill="black"/>
</g>
<path d="M117.696 156.005C123.758 169.37 109.699 173.191 116.139 195.106L85.5802 195.821C85.7801 184.077 89.957 186.599 84.4521 164.52C83.988 162.648 83.2169 157.284 85.2089 152.376C85.9705 150.465 87.371 148.877 89.1716 147.883C91.4279 146.669 101.367 147.619 105.901 147.926C110.813 147.262 116.796 154.334 117.696 156.005Z" fill="#50AFFF"/>
<path opacity="0.5" d="M117.696 156.005C123.758 169.37 109.699 173.191 116.139 195.106L85.5802 195.821C85.7801 184.077 89.957 186.599 84.4521 164.52C83.988 162.648 83.2169 157.284 85.2089 152.376C85.9705 150.465 87.371 148.877 89.1716 147.883C91.4279 146.669 101.367 147.619 105.901 147.926C110.813 147.262 116.796 154.334 117.696 156.005Z" fill="white"/>
<path d="M111.856 129.49C111.77 130.075 112.005 130.553 112.37 130.603C112.734 130.653 113.084 130.246 113.191 129.682C113.298 129.118 113.034 128.626 112.669 128.568C112.305 128.511 111.934 128.933 111.856 129.49Z" fill="#263238"/>
<path d="M112.505 128.576L113.933 128.383C113.933 128.383 113.062 129.339 112.505 128.576Z" fill="#263238"/>
<path d="M111.948 130.261C112.26 131.613 112.76 132.914 113.433 134.126C113.118 134.289 112.77 134.382 112.415 134.397C112.059 134.411 111.705 134.348 111.377 134.211L111.948 130.261Z" fill="#A02724"/>
<path d="M113.876 125.561C113.931 125.541 113.979 125.506 114.015 125.461C114.052 125.416 114.075 125.361 114.083 125.304C114.096 125.216 114.074 125.127 114.022 125.055C113.97 124.983 113.892 124.934 113.805 124.918C113.284 124.827 112.748 124.862 112.244 125.021C111.739 125.181 111.28 125.459 110.906 125.832C110.868 125.86 110.836 125.896 110.812 125.936C110.789 125.977 110.774 126.023 110.77 126.07C110.765 126.117 110.77 126.164 110.785 126.209C110.8 126.254 110.824 126.295 110.856 126.33C110.888 126.364 110.926 126.392 110.97 126.411C111.013 126.43 111.06 126.439 111.107 126.439C111.154 126.438 111.201 126.428 111.243 126.408C111.286 126.389 111.325 126.36 111.356 126.325L111.399 126.275C111.7 125.983 112.065 125.766 112.466 125.642C112.867 125.517 113.291 125.49 113.705 125.561C113.761 125.575 113.82 125.575 113.876 125.561Z" fill="#263238"/>
<path d="M93.3627 124.861C92.7843 131.826 92.3916 134.761 95.3547 138.812C99.8244 144.898 108.514 144.098 111.141 137.447C113.533 131.454 114.076 121.075 107.728 117.354C106.65 116.715 105.457 116.296 104.217 116.12C102.977 115.943 101.714 116.013 100.501 116.326C99.2882 116.638 98.1487 117.187 97.148 117.941C96.1473 118.695 95.305 119.638 94.6693 120.718C93.9174 121.979 93.4699 123.397 93.3627 124.861Z" fill="#CB7A63"/>
<path d="M111.306 137.025C110.775 136.569 110.376 135.98 110.149 135.319C110.143 135.282 110.15 135.244 110.168 135.212C110.186 135.179 110.214 135.154 110.249 135.14C110.285 135.131 110.323 135.137 110.355 135.155C110.387 135.174 110.41 135.204 110.42 135.24C110.63 135.808 110.97 136.319 111.413 136.732L111.306 137.025Z" fill="#263238"/>
<path d="M88.4004 115.811C85.7515 119.382 84.5448 120.339 87.8292 129.918C89.1501 133.768 92.9843 138.868 94.8478 139.333C98.1893 140.176 101.438 137.833 103.944 135.468C106.225 133.483 108.135 131.108 109.585 128.454C110.927 125.747 111.42 122.496 110.299 119.689C109.099 116.639 104.865 113.918 101.695 113.26C97.9823 112.46 90.6067 112.818 88.4004 115.811Z" fill="#263238"/>
<path d="M109.242 129.047C109.242 129.047 110.077 130.476 109.021 131.554V129.647L109.242 129.047Z" fill="#263238"/>
<path d="M109.242 129.047C109.242 129.047 109.549 131.247 107.707 132.069L108.692 129.697L109.242 129.047Z" fill="#263238"/>
<path d="M96.947 138.526C96.947 138.526 94.9193 139.447 95.212 141.44L96.69 139.333L96.947 138.526Z" fill="#263238"/>
<path d="M97.0257 138.576C97.0257 138.576 95.4834 140.176 96.4973 141.926L97.0899 139.419L97.0257 138.576Z" fill="#263238"/>
<path d="M111.998 126.168C112.752 125.451 113.418 124.648 113.983 123.775C114.562 122.899 114.814 121.847 114.697 120.804C114.553 120.146 114.267 119.528 113.857 118.993C113.447 118.458 112.925 118.021 112.327 117.711C111.133 117.095 109.852 116.664 108.528 116.432C107.902 116.207 107.213 116.227 106.601 116.489C106.346 116.678 106.145 116.931 106.02 117.222C105.894 117.513 105.848 117.832 105.887 118.147C105.955 118.781 106.128 119.399 106.401 119.975C107.271 122.288 107.912 124.68 108.314 127.118C108.535 128.347 108.371 129.168 109.585 128.69C110.335 128.411 111.384 126.818 111.998 126.168Z" fill="#263238"/>
<path d="M102.388 129.611C102.314 131.222 102.881 132.797 103.966 133.99C105.394 135.562 107.264 134.533 107.793 132.561C108.271 130.804 108.093 127.868 106.186 127.026C104.28 126.183 102.488 127.647 102.388 129.611Z" fill="#CB7A63"/>
<path d="M183.37 218.879L188.882 213.507L178.208 200.085L171.546 204.021L183.37 218.879Z" fill="#CB7A63"/>
<path d="M194.508 211.85C193.901 211.635 192.644 212.321 191.688 212.928C191.445 213.078 191.231 213.228 191.045 213.356L190.952 213.428C190.738 213.578 190.581 213.692 190.524 213.742C190.491 213.757 190.465 213.783 190.449 213.816C190.434 213.848 190.43 213.885 190.438 213.92C190.449 213.956 190.47 213.988 190.5 214.011C190.529 214.034 190.565 214.047 190.602 214.049C191.26 214.077 191.919 214.056 192.573 213.985L193.009 213.935C193.481 213.899 193.936 213.741 194.329 213.478C194.473 213.39 194.607 213.287 194.729 213.171C194.833 213.046 194.903 212.898 194.934 212.74C194.965 212.582 194.956 212.418 194.908 212.264C194.879 212.168 194.828 212.08 194.758 212.008C194.689 211.936 194.603 211.882 194.508 211.85ZM194.551 212.364C194.586 212.468 194.593 212.579 194.572 212.687C194.551 212.795 194.502 212.895 194.429 212.978C194.132 213.266 193.753 213.455 193.344 213.52C192.861 213.631 192.369 213.696 191.873 213.713C191.645 213.713 191.407 213.713 191.159 213.713L191.402 213.535C191.456 213.49 191.513 213.449 191.573 213.413C192.341 212.872 193.186 212.451 194.08 212.164C194.189 212.132 194.306 212.132 194.415 212.164C194.454 212.181 194.488 212.209 194.512 212.244C194.536 212.28 194.549 212.321 194.551 212.364Z" fill="#50AFFF"/>
<path opacity="0.2" d="M177.65 199.264L182.67 205.692L175.88 209.485L170.782 203.221L177.65 199.264Z" fill="black"/>
<path d="M85.3018 193.499L84.5878 196.278C84.4807 196.492 84.7449 196.699 85.0948 196.692L116.561 195.978C116.839 195.978 117.061 195.828 117.075 195.649L116.289 192.742C116.289 192.556 116.061 192.399 115.761 192.406L85.7731 193.292C85.6839 193.288 85.5949 193.304 85.5131 193.34C85.4314 193.376 85.3591 193.431 85.3018 193.499Z" fill="#263238"/>
<path d="M113.305 196.278L112.477 196.371C112.312 196.371 112.177 196.321 112.177 196.213V192.642C112.177 192.535 112.312 192.435 112.469 192.421L113.298 192.32C113.462 192.32 113.598 192.378 113.598 192.485V196.056C113.598 196.163 113.469 196.263 113.305 196.278Z" fill="#50AFFF"/>
<path d="M102.038 196.435L101.21 196.521C101.053 196.521 100.917 196.471 100.917 196.363V192.792C100.917 192.692 101.053 192.592 101.217 192.571L102.038 192.478C102.202 192.478 102.338 192.528 102.338 192.635V196.206C102.338 196.321 102.202 196.435 102.038 196.435Z" fill="#50AFFF"/>
<path d="M102.038 196.435L101.21 196.521C101.053 196.521 100.917 196.471 100.917 196.363V192.792C100.917 192.692 101.053 192.592 101.217 192.571L102.038 192.478C102.202 192.478 102.338 192.528 102.338 192.635V196.206C102.338 196.321 102.202 196.435 102.038 196.435Z" fill="#50AFFF"/>
<path d="M181.87 202.149L180.478 202.935L178.079 204.292L175.937 205.5L173.731 206.742L172.881 207.221L172.353 206.828C172.224 206.742 172.074 206.635 171.903 206.5C171.375 206.107 170.646 205.564 169.761 204.885C165.327 201.371 157.423 194.471 155.067 188.192C153.546 190.006 151.725 192.285 149.64 194.799C140.658 205.635 126.721 220.929 109.956 222.921L108.928 223.029C103.323 223.507 98.9321 222.95 95.4692 221.686C86.7655 218.493 84.3379 210.843 84.9305 204.335C84.9877 201.285 85.5803 195.856 85.5803 195.856H117.339C121.809 190.42 130.791 181.906 139.966 176.57C140.18 176.434 140.401 176.306 140.623 176.191C140.844 176.077 141.172 175.877 141.444 175.727C144.213 174.163 147.171 172.963 150.247 172.156C150.876 172.006 151.497 171.877 152.111 171.784C152.74 171.69 153.374 171.63 154.01 171.606C158.358 171.413 162.135 173.034 164.72 177.37L181.392 201.435L181.87 202.149Z" fill="#50AFFF"/>
<path d="M164.734 169.133L129.648 170.583L130.677 148.247L165.763 146.797L164.734 169.133Z" fill="#50AFFF"/>
<path d="M164.327 170.891L129.748 172.32C129.521 172.335 129.293 172.301 129.08 172.22C128.867 172.139 128.674 172.014 128.513 171.852C128.353 171.69 128.229 171.496 128.15 171.282C128.071 171.068 128.039 170.84 128.056 170.613L129.07 148.419C129.101 147.935 129.307 147.479 129.65 147.137C129.993 146.795 130.45 146.591 130.934 146.562L165.513 145.133C165.74 145.12 165.967 145.154 166.179 145.236C166.392 145.317 166.585 145.442 166.745 145.604C166.905 145.765 167.029 145.959 167.108 146.172C167.187 146.386 167.22 146.613 167.205 146.84L166.184 169.034C166.156 169.518 165.952 169.974 165.61 170.317C165.267 170.659 164.811 170.864 164.327 170.891Z" fill="#263238"/>
<path d="M164.734 169.133L129.648 170.583L130.677 148.247L165.763 146.797L164.734 169.133Z" fill="#50AFFF"/>
<path opacity="0.9" d="M164.734 169.133L129.648 170.583L130.677 148.247L165.763 146.797L164.734 169.133Z" fill="white"/>
<path opacity="0.1" d="M143.129 146.069L137.331 171.998L139.637 171.905L145.356 145.976L143.129 146.069Z" fill="white"/>
<path opacity="0.1" d="M146.684 145.919L140.887 171.848L145.463 171.662L151.183 145.733L146.684 145.919Z" fill="white"/>
<path d="M153.346 171.17L165.027 170.841C165.227 172.198 164.649 172.706 163.906 172.727L160.172 172.82L157.673 172.877L153.796 172.984L129.741 173.698L129.548 172.006L153.346 171.17Z" fill="#50AFFF"/>
<path d="M153.346 171.17L165.027 170.841C165.227 172.198 164.649 172.706 163.906 172.727L160.172 172.82L157.673 172.877L153.796 172.984L124.022 173.898C123.855 173.905 123.689 173.863 123.546 173.776C123.403 173.69 123.288 173.564 123.215 173.413C123.154 173.283 123.125 173.141 123.132 172.997C123.139 172.854 123.182 172.715 123.256 172.592C123.331 172.47 123.435 172.368 123.558 172.295C123.682 172.223 123.822 172.182 123.965 172.177L153.346 171.17Z" fill="#50AFFF"/>
<path opacity="0.2" d="M153.346 171.17L165.027 170.841C165.227 172.198 164.649 172.706 163.906 172.727L160.172 172.82L157.673 172.877L153.796 172.984L124.022 173.898C123.855 173.905 123.689 173.863 123.546 173.776C123.403 173.69 123.288 173.564 123.215 173.413C123.154 173.283 123.125 173.141 123.132 172.997C123.139 172.854 123.182 172.715 123.256 172.592C123.331 172.47 123.435 172.368 123.558 172.295C123.682 172.223 123.822 172.182 123.965 172.177L153.346 171.17Z" fill="black"/>
<path opacity="0.2" d="M165.027 170.841L165.098 171.312C165.126 171.487 165.116 171.664 165.069 171.834C165.022 172.004 164.939 172.162 164.826 172.297C164.714 172.433 164.573 172.542 164.414 172.618C164.255 172.695 164.082 172.737 163.906 172.74L160.172 172.833L153.232 173.083L153.346 171.184L165.027 170.841Z" fill="black"/>
<path opacity="0.2" d="M104.523 156.662C104.523 156.662 102.873 160.027 107.636 168.913L109.628 172.534C110.285 173.727 114.626 171.291 115.954 169.055C115.954 169.055 107.6 164.041 104.523 156.662Z" fill="black"/>
<path d="M144.942 167.02L148.262 166.041L147.734 171.17C147.734 171.17 143.1 174.27 141.494 171.306L142.143 169.655C142.383 169.034 142.759 168.475 143.243 168.019C143.727 167.563 144.308 167.221 144.942 167.02Z" fill="#CB7A63"/>
<path d="M152.082 168.055L151.668 169.905C151.608 170.184 151.459 170.436 151.244 170.624C151.029 170.812 150.76 170.926 150.476 170.948L147.712 171.17L148.248 166.034L150.961 166.463C151.309 166.509 151.625 166.691 151.839 166.969C152.053 167.248 152.148 167.6 152.104 167.948L152.082 168.055Z" fill="#CB7A63"/>
<path d="M117.268 175.72C119.588 178.863 122.844 181.492 126.671 182.242C131.183 183.12 139.866 176.734 143.935 172.606C143.736 170.863 143.85 169.92 142.115 169.677C142.115 169.677 137.631 172.963 129.184 174.934C126.45 175.57 124.629 172.791 122.251 168.713C121.066 166.691 117.253 158.377 115.775 156.526C113.448 153.555 106.836 155.684 109.464 162.834C110.563 165.82 115.375 173.134 117.268 175.72Z" fill="#CB7A63"/>
<path d="M114.797 151.641C119.488 155.926 121.773 163.584 121.773 163.584L110.813 170.27C110.813 170.27 102.816 159.012 104.244 155.091C105.372 152.048 107.464 150.048 110.213 149.876C111.057 149.848 111.897 149.99 112.684 150.293C113.472 150.596 114.19 151.054 114.797 151.641Z" fill="#50AFFF"/>
<path d="M89.65 196.856H88.8218C88.6576 196.856 88.5219 196.778 88.5362 196.671L88.8432 193.099C88.8432 192.992 88.9931 192.906 89.1574 192.899H89.9856C90.1498 192.899 90.2855 192.985 90.2712 193.085L89.9642 196.656C89.9472 196.723 89.9052 196.782 89.8468 196.819C89.7884 196.856 89.718 196.869 89.65 196.856Z" fill="#50AFFF"/>
<path d="M171.524 208.742L182.206 203.399L181.292 199.599L169.111 205.157L171.524 208.742Z" fill="#50AFFF"/>
<path opacity="0.5" d="M171.524 208.742L182.206 203.399L181.292 199.599L169.111 205.157L171.524 208.742Z" fill="white"/>
<path d="M188.453 212.921L181.085 215.15C180.945 215.188 180.823 215.276 180.742 215.396C180.66 215.517 180.625 215.663 180.642 215.807L181.535 222.493C181.56 222.65 181.616 222.801 181.7 222.936C181.783 223.071 181.893 223.189 182.023 223.281C182.153 223.373 182.299 223.439 182.454 223.474C182.61 223.509 182.77 223.513 182.927 223.486H183.055C195.365 221.436 199.428 219.2 200.748 218.728C204.533 217.45 203.019 214.664 201.677 214.743C195.65 215.114 193.773 214.414 191.381 213.314C190.453 212.942 189.447 212.807 188.453 212.921Z" fill="#263238"/>
<path d="M89.3715 124.783C87.1581 125.133 84.9662 123.433 84.2736 121.304C83.9879 120.22 83.9312 119.089 84.1069 117.982C84.2827 116.875 84.6872 115.817 85.2946 114.875C86.13 113.447 91.6064 110.061 93.6341 113.875C97.6754 121.432 89.3715 124.783 89.3715 124.783Z" fill="#263238"/>
<path d="M164.42 154.455L142.822 155.369L142.921 153.226L164.52 152.312L164.42 154.455Z" fill="#50AFFF"/>
<g opacity="0.7">
<path opacity="0.7" d="M164.42 154.455L142.822 155.369L142.921 153.226L164.52 152.312L164.42 154.455Z" fill="white"/>
</g>
<path d="M164.291 157.427L142.693 158.348L142.786 156.205L164.384 155.284L164.291 157.427Z" fill="#50AFFF"/>
<g opacity="0.7">
<path opacity="0.7" d="M164.291 157.427L142.693 158.348L142.786 156.205L164.384 155.284L164.291 157.427Z" fill="white"/>
</g>
<path d="M164.156 160.405L142.557 161.327L142.657 159.177L164.249 158.262L164.156 160.405Z" fill="#50AFFF"/>
<g opacity="0.7">
<path opacity="0.7" d="M164.156 160.405L142.557 161.327L142.657 159.177L164.249 158.262L164.156 160.405Z" fill="white"/>
</g>
<path d="M164.02 163.377L142.422 164.298L142.522 162.155L164.12 161.234L164.02 163.377Z" fill="#50AFFF"/>
<g opacity="0.7">
<path opacity="0.7" d="M164.02 163.377L142.422 164.298L142.522 162.155L164.12 161.234L164.02 163.377Z" fill="white"/>
</g>
<path d="M163.891 166.355L142.293 167.277L142.386 165.134L163.984 164.212L163.891 166.355Z" fill="#50AFFF"/>
<g opacity="0.7">
<path opacity="0.7" d="M163.891 166.355L142.293 167.277L142.386 165.134L163.984 164.212L163.891 166.355Z" fill="white"/>
</g>
<path d="M134.088 156.58L132.354 156.655L132.385 157.368L134.119 157.294L134.088 156.58Z" fill="#50AFFF"/>
<g opacity="0.5">
<path opacity="0.5" d="M134.088 156.58L132.354 156.655L132.385 157.368L134.119 157.294L134.088 156.58Z" fill="white"/>
</g>
<path d="M134.005 158.646L132.272 158.721L132.302 159.434L134.036 159.359L134.005 158.646Z" fill="#50AFFF"/>
<g opacity="0.5">
<path opacity="0.5" d="M134.005 158.646L132.272 158.721L132.303 159.434L134.036 159.36L134.005 158.646Z" fill="white"/>
</g>
<path d="M133.483 161.267L131.748 161.336L131.776 162.05L133.511 161.981L133.483 161.267Z" fill="#50AFFF"/>
<g opacity="0.5">
<path opacity="0.5" d="M133.483 161.267L131.748 161.336L131.777 162.05L133.512 161.981L133.483 161.267Z" fill="white"/>
</g>
<path d="M133.847 162.764L132.113 162.838L132.144 163.552L133.877 163.477L133.847 162.764Z" fill="#50AFFF"/>
<g opacity="0.5">
<path opacity="0.5" d="M133.847 162.764L132.113 162.838L132.144 163.552L133.877 163.477L133.847 162.764Z" fill="white"/>
</g>
<path d="M133.305 165.388L131.57 165.457L131.599 166.171L133.334 166.102L133.305 165.388Z" fill="#50AFFF"/>
<g opacity="0.5">
<path opacity="0.5" d="M132.069 165.605L132.133 164.891L133.861 164.812L133.796 165.534L132.069 165.605Z" fill="white"/>
</g>
<path d="M133.685 166.884L131.951 166.957L131.981 167.671L133.715 167.598L133.685 166.884Z" fill="#50AFFF"/>
<g opacity="0.5">
<path opacity="0.5" d="M133.685 166.884L131.951 166.957L131.981 167.671L133.715 167.598L133.685 166.884Z" fill="white"/>
</g>
<path d="M135.903 154.605L132.319 155.941L132.354 154.998L134.339 154.676L132.376 154.541L132.411 153.598L135.903 154.605Z" fill="#50AFFF"/>
<path d="M157.787 151.197L142.822 151.833L142.893 150.347L157.858 149.712L157.787 151.197Z" fill="#50AFFF"/>
<g opacity="0.7">
<path opacity="0.7" d="M157.787 151.197L142.822 151.833L142.893 150.347L157.858 149.712L157.787 151.197Z" fill="white"/>
</g>
<path d="M137.595 151.962L135.403 152.062L136.288 151.498L136.531 151.719L136.795 151.491L137.595 151.962Z" fill="#50AFFF"/>
<path d="M136.203 151.426L135.317 151.997L135.382 150.683L136.203 151.426Z" fill="#50AFFF"/>
<path d="M137.738 150.648L137.666 151.883L136.86 151.412L137.738 150.648Z" fill="#50AFFF"/>
<path d="M136.555 151.195L136.506 151.248L136.511 151.252L136.56 151.2L136.555 151.195Z" fill="white"/>
<path d="M136.519 151.204L136.514 151.209L136.563 151.261L136.568 151.256L136.519 151.204Z" fill="white"/>
<path d="M137.738 150.519L136.795 151.376L136.531 151.612L136.288 151.383L135.467 150.641L135.403 150.583L137.738 150.519Z" fill="#50AFFF"/>
<path d="M134.092 150.767L132.359 150.841L132.368 151.055L134.101 150.981L134.092 150.767Z" fill="#50AFFF"/>
<path d="M134.094 151.309L132.36 151.383L132.369 151.597L134.103 151.523L134.094 151.309Z" fill="#50AFFF"/>
<path d="M134.096 151.866L132.362 151.94L132.371 152.154L134.105 152.08L134.096 151.866Z" fill="#50AFFF"/>
<path d="M96.7541 168.363L103.23 242.422H92.82L85.8513 162.727H90.6351C92.1739 162.733 93.6547 163.315 94.7868 164.358C95.9189 165.401 96.6205 166.829 96.7541 168.363Z" fill="#50AFFF"/>
<path opacity="0.2" d="M96.8184 169.034L103.244 242.422H92.82L85.8513 162.727H89.964C91.6867 162.734 93.3445 163.385 94.6124 164.552C95.8804 165.719 96.6671 167.317 96.8184 169.034Z" fill="black"/>
<path d="M89.9641 167.555L96.5114 242.422H34.3934L27.9674 168.477C27.9031 167.746 27.9913 167.011 28.2265 166.316C28.4617 165.622 28.8387 164.984 29.3336 164.443C29.8285 163.902 30.4304 163.471 31.1012 163.175C31.7719 162.879 32.4967 162.727 33.2296 162.727H84.7661C86.0769 162.743 87.3348 163.246 88.2955 164.139C89.2561 165.031 89.8508 166.249 89.9641 167.555Z" fill="#50AFFF"/>
<path opacity="0.2" d="M90.0427 168.37L96.5186 242.422H34.4006L27.9961 169.448C27.9208 168.595 28.0238 167.735 28.2985 166.924C28.5732 166.112 29.0136 165.367 29.5917 164.734C30.1698 164.102 30.873 163.597 31.6567 163.252C32.4403 162.906 33.2872 162.727 34.1436 162.727H83.8951C85.4395 162.728 86.9273 163.308 88.0653 164.353C89.2033 165.397 89.9087 166.83 90.0427 168.37Z" fill="white"/>
<path d="M199.342 242.422H34.6576L32.844 221.886H190.924C192.721 221.918 194.445 222.609 195.768 223.826C197.092 225.043 197.923 226.704 198.106 228.493L199.342 242.422Z" fill="#50AFFF"/>
<path opacity="0.2" d="M199.342 242.422H34.6576L32.844 221.886H190.924C192.721 221.918 194.445 222.609 195.768 223.826C197.092 225.043 197.923 226.704 198.106 228.493L199.342 242.422Z" fill="white"/>
<path d="M206.896 250.287H32.7228C31.6383 250.285 30.5988 249.853 29.832 249.086C29.0651 248.319 28.6335 247.279 28.6316 246.194C28.6316 245.108 29.0626 244.067 29.8299 243.3C30.5971 242.532 31.6378 242.101 32.7228 242.101H206.896C207.981 242.101 209.022 242.532 209.789 243.3C210.556 244.067 210.987 245.108 210.987 246.194C210.985 247.279 210.554 248.319 209.787 249.086C209.02 249.853 207.98 250.285 206.896 250.287Z" fill="#50AFFF"/>
<path opacity="0.2" d="M206.896 250.287H105.786C104.701 250.287 103.661 249.855 102.893 249.088C102.126 248.32 101.695 247.279 101.695 246.194C101.694 245.656 101.799 245.123 102.005 244.626C102.21 244.129 102.511 243.678 102.891 243.297C103.271 242.917 103.723 242.616 104.22 242.41C104.716 242.205 105.249 242.1 105.786 242.101H206.896C207.981 242.101 209.022 242.532 209.789 243.3C210.556 244.067 210.987 245.108 210.987 246.194C210.985 247.279 210.554 248.319 209.787 249.086C209.02 249.853 207.98 250.285 206.896 250.287Z" fill="black"/>
<path d="M35.0076 250.287L37.071 257.308H41.198L43.4685 250.287H35.0076Z" fill="#263238"/>
<path opacity="0.5" d="M35.0076 250.287L37.071 257.308H41.198L43.4685 250.287H35.0076Z" fill="white"/>
<path d="M94.1482 250.287L96.2117 257.308H100.339L102.616 250.287H94.1482Z" fill="#263238"/>
<path opacity="0.5" d="M94.1482 250.287L96.2117 257.308H100.339L102.616 250.287H94.1482Z" fill="white"/>
<path d="M139.416 250.287L141.479 257.308H145.606L147.877 250.287H139.416Z" fill="#263238"/>
<path opacity="0.5" d="M139.416 250.287L141.479 257.308H145.606L147.877 250.287H139.416Z" fill="white"/>
<path d="M198.556 250.287L200.62 257.308H204.747L207.017 250.287H198.556Z" fill="#263238"/>
<path opacity="0.5" d="M198.556 250.287L200.62 257.308H204.747L207.017 250.287H198.556Z" fill="white"/>
<path d="M75.6054 159.941H71.0858C70.9911 159.941 70.9003 159.903 70.8333 159.836C70.7664 159.769 70.7288 159.678 70.7288 159.584C70.7288 159.489 70.7664 159.398 70.8333 159.331C70.9003 159.264 70.9911 159.227 71.0858 159.227H75.6054C75.6995 159.228 75.7892 159.267 75.8558 159.333C75.9224 159.4 75.9606 159.489 75.9624 159.584C75.9624 159.678 75.9248 159.769 75.8578 159.836C75.7909 159.903 75.7001 159.941 75.6054 159.941Z" fill="#50AFFF"/>
<path d="M68.0801 159.941H45.4249C45.3302 159.941 45.2394 159.903 45.1724 159.836C45.1055 159.769 45.0679 159.678 45.0679 159.584C45.0697 159.489 45.1079 159.4 45.1745 159.333C45.241 159.267 45.3308 159.228 45.4249 159.227H68.0801C68.1742 159.228 68.264 159.267 68.3305 159.333C68.3971 159.4 68.4353 159.489 68.4371 159.584C68.4371 159.678 68.3995 159.769 68.3325 159.836C68.2656 159.903 68.1748 159.941 68.0801 159.941Z" fill="#50AFFF"/>
<path d="M148.405 201.278C148.316 201.275 148.23 201.243 148.162 201.185C148.129 201.152 148.102 201.112 148.084 201.069C148.066 201.025 148.057 200.979 148.057 200.931C148.057 200.884 148.066 200.838 148.084 200.794C148.102 200.751 148.129 200.711 148.162 200.678L150.304 198.378C150.337 198.344 150.377 198.318 150.42 198.3C150.464 198.282 150.511 198.272 150.558 198.272C150.605 198.272 150.651 198.282 150.695 198.3C150.739 198.318 150.778 198.344 150.811 198.378C150.877 198.446 150.914 198.537 150.914 198.631C150.914 198.726 150.877 198.817 150.811 198.885L148.669 201.185C148.597 201.249 148.502 201.283 148.405 201.278Z" fill="#50AFFF"/>
<path d="M129.049 219.586C128.982 219.586 128.918 219.568 128.862 219.532C128.806 219.497 128.762 219.446 128.734 219.386C128.712 219.344 128.699 219.299 128.695 219.252C128.691 219.205 128.697 219.158 128.711 219.113C128.726 219.068 128.749 219.027 128.78 218.992C128.811 218.956 128.849 218.928 128.891 218.907C135.503 215.557 145.992 203.028 146.099 202.899C146.128 202.863 146.165 202.833 146.206 202.811C146.248 202.79 146.293 202.776 146.34 202.772C146.386 202.768 146.433 202.774 146.478 202.788C146.522 202.803 146.563 202.826 146.599 202.857C146.671 202.919 146.715 203.007 146.723 203.101C146.731 203.196 146.702 203.29 146.641 203.364C146.213 203.878 135.931 216.128 129.213 219.543C129.163 219.571 129.106 219.586 129.049 219.586Z" fill="#50AFFF"/>
</svg>
